<?xml version="1.0" encoding="utf-8"?>
<!-- Generator: Adobe Illustrator 24.3.0, SVG Export Plug-In . SVG Version: 6.00 Build 0)  -->
<svg version="1.1" id="Layer_1" xmlns="http://www.w3.org/2000/svg" xmlns:xlink="http://www.w3.org/1999/xlink" x="0px" y="0px"
	 viewBox="0 0 44.4 25" style="enable-background:new 0 0 44.4 25;" xml:space="preserve">
<style type="text/css">
	.st0{opacity:0.5;fill:#FFFFFF;}
	.st1{fill:#D64752;}
	.st2{fill:#FFFFFF;}
</style>
<g>
	<path class="st0" d="M9.1,5H5.7C4.8,5,4,4.2,4,3.3v0c0-1,0.8-1.7,1.7-1.7h3.3c1,0,1.7,0.8,1.7,1.7v0C10.8,4.2,10,5,9.1,5z"/>
	<path class="st0" d="M5.9,11.9H2.5c-1,0-1.7-0.8-1.7-1.7v0c0-1,0.8-1.7,1.7-1.7h3.3c1,0,1.7,0.8,1.7,1.7v0
		C7.6,11.1,6.8,11.9,5.9,11.9z"/>
	<path class="st1" d="M42.4,23.5H2.7c-0.7,0-1.2-0.5-1.2-1.2v0c0-0.7,0.5-1.2,1.2-1.2h39.8c0.7,0,1.2,0.5,1.2,1.2v0
		C43.6,22.9,43.1,23.5,42.4,23.5z"/>
	<path class="st2" d="M37,6.3c-3.2-3-6.8-4.8-11.8-4.8H14.4c-1,0-1.7,0.8-1.7,1.7S13.5,5,14.4,5h5.1c1,0,1.7,0.8,1.7,1.7
		c0,1-0.8,1.7-1.7,1.7h-8.3c-1,0-1.7,0.8-1.7,1.7c0,1,0.8,1.7,1.7,1.7h0h2.1c1,0,1.7,0.8,1.7,1.7c0,1-0.8,1.7-1.7,1.7H3.2
		c-1,0-1.7,0.8-1.7,1.7c0,1,0.8,1.7,1.7,1.7c0,0,33.7,0,37.8,0C46.5,18.8,42.5,11.5,37,6.3z M28.6,8.4c-1,0-1.7-0.8-1.7-1.7
		c0-1,0.8-1.7,1.7-1.7h2.9c1.1,0.6,2.1,1.4,3.2,2.4c0.4,0.3,0.7,0.7,1,1H28.6z"/>
</g>
</svg>
