<?xml version="1.0" encoding="utf-8"?>
<!-- Generator: Adobe Illustrator 24.3.0, SVG Export Plug-In . SVG Version: 6.00 Build 0)  -->
<svg version="1.1" id="Layer_1" xmlns="http://www.w3.org/2000/svg" xmlns:xlink="http://www.w3.org/1999/xlink" x="0px" y="0px"
	 viewBox="0 0 51.6 25" style="enable-background:new 0 0 51.6 25;" xml:space="preserve">
<style type="text/css">
	.st0{opacity:0.5;}
	.st1{fill:#FFFFFF;}
	.st2{fill:#86BC24;}
</style>
<g>
	<g>
		<g>
			<g class="st0">
				<g>
					<path class="st1" d="M9.9,6.1H6.4c-1,0-1.8-0.8-1.8-1.8v0c0-1,0.8-1.8,1.8-1.8l3.5,0c1,0,1.8,0.8,1.8,1.8v0
						C11.7,5.3,10.9,6.1,9.9,6.1z"/>
				</g>
			</g>
			<g class="st0">
				<g>
					<path class="st1" d="M6.5,13.4H3c-1,0-1.8-0.8-1.8-1.8v0c0-1,0.8-1.8,1.8-1.8h3.5c1,0,1.8,0.8,1.8,1.8v0
						C8.3,12.6,7.5,13.4,6.5,13.4z"/>
				</g>
			</g>
			<g>
				<path class="st2" d="M50.5,6.4c-0.8-2.6-2.6-4-5-4h-4.6h-1.5h-3l0.1,7.9l13.1,4.6c-0.1-0.7-0.1-1.4-0.3-2.3
					c-0.4-3.1-1.7-6.7-4.2-8.7h0.3c1.7,0,2.9,1,3.6,3c0.1,0.3,0.4,0.5,0.7,0.5c0.1,0,0.2,0,0.2,0C50.4,7.2,50.6,6.8,50.5,6.4z"/>
				<g>
					<path class="st1" d="M34.6,12.1l-14-1.8h13.5V2.4H15.6c-1,0-1.8,0.8-1.8,1.8s0.8,1.8,1.8,1.8H21c1,0,1.8,0.8,1.8,1.8
						c0,1-0.8,1.8-1.8,1.8h-8.8c-1,0-1.8,0.8-1.8,1.8c0,1,0.8,1.8,1.8,1.8h0h2.2c1,0,1.8,0.8,1.8,1.8c0,1-0.8,1.8-1.8,1.8H3.7
						c-1,0-1.8,0.8-1.8,1.8c0,1,0.8,1.8,1.8,1.8c0,0,39.6,0,44,0c1.1,0,2.1,0,2.1-3.2L34.6,12.1z"/>
				</g>
			</g>
		</g>
	</g>
	<circle class="st1" cx="38.8" cy="21.3" r="3.1"/>
	<circle class="st1" cx="7.1" cy="21.3" r="3.1"/>
</g>
</svg>
